<?xml version="1.0" encoding="utf-8"?>
<!-- Generator: Adobe Illustrator 19.2.1, SVG Export Plug-In . SVG Version: 6.00 Build 0)  -->
<svg version="1.1" id="Layer_1" xmlns="http://www.w3.org/2000/svg" xmlns:xlink="http://www.w3.org/1999/xlink" x="0px" y="0px"
	 viewBox="0 0 1500 1500" style="enable-background:new 0 0 1500 1500;" xml:space="preserve">
<style type="text/css">
	.st0{fill:none;stroke:#000000;stroke-width:95;}
</style>
<g>
	<g>
		<path d="M657,1153c-17.2,6.3-31.5,6.6-43,0.8c-11.5-5.7-17.2-13.2-17.2-22.3s2.9-19.8,8.6-31.8c5.7-12,10.9-23.8,15.5-35.3
			c11.5-27.5,6.9-48.7-13.7-63.6c-24.1-16-48.1-24.1-72.2-24.1c-24.1,0-46.7,10-67.9,30.1c-21.2,20.1-31.8,47.8-31.8,83.4
			c0,51.6,25.2,101.2,75.6,148.7c50.4,47.6,119.2,71.3,206.3,71.3c87.1,0,159.6-25.8,217.5-77.4s86.8-114.6,86.8-189.1
			c0-100.9-75.7-189.7-226.9-266.5c-8-4.6-25.8-13.5-53.3-26.6c-27.5-13.2-46.4-22.6-56.7-28.4s-27.2-14.9-50.7-27.5
			c-23.5-12.6-41.8-23.5-55-32.7c-13.2-9.2-29-20.1-47.3-32.7c-27.5-18.3-56.7-44.7-87.7-79.1c-43.6-52.7-65.3-114.9-65.3-186.5
			s34.9-135.2,104.9-190.8s152.2-83.4,246.7-83.4s175.1,17.8,241.5,53.3c66.5,35.5,99.7,75.7,99.7,120.3c0,27.5-11.5,45.8-34.4,55
			c-8,2.3-18.4,3.4-31,3.4c-12.6,0-24.9-4-37-12c-12-8-25.8-18.9-41.2-32.7c-15.5-13.8-29.5-24.6-42.1-32.7
			c-34.4-22.9-81.4-34.4-141-34.4c-59.6,0-112.6,15.5-159,46.4c-46.4,30.9-69.6,69-69.6,114.3s21.8,87.4,65.3,126.4
			c39,34.4,100.3,74.2,183.9,119.5c83.7,45.3,139.2,76.5,166.7,93.7c67.6,40.1,122.3,89.1,164.2,147c41.8,57.9,62.8,120,62.8,186.5
			c0,105.5-41,196.3-122.9,272.5s-186.5,114.3-313.7,114.3s-227.5-33.2-300.9-99.7c-73.4-66.5-110-139.8-110-220.1
			s21.2-142.4,63.6-186.5c42.4-44.1,95.7-66.2,159.9-66.2c64.2,0,113.5,16.1,147.8,48.1s51.6,68.8,51.6,110
			c0,41.3-10.9,75.1-32.7,101.4C689.1,1135,674.2,1146.7,657,1153z"/>
	</g>
	<g>
		<path class="st0" d="M657,1153c-17.2,6.3-31.5,6.6-43,0.8c-11.5-5.7-17.2-13.2-17.2-22.3s2.9-19.8,8.6-31.8
			c5.7-12,10.9-23.8,15.5-35.3c11.5-27.5,6.9-48.7-13.7-63.6c-24.1-16-48.1-24.1-72.2-24.1c-24.1,0-46.7,10-67.9,30.1
			c-21.2,20.1-31.8,47.8-31.8,83.4c0,51.6,25.2,101.2,75.6,148.7c50.4,47.6,119.2,71.3,206.3,71.3c87.1,0,159.6-25.8,217.5-77.4
			s86.8-114.6,86.8-189.1c0-100.9-75.7-189.7-226.9-266.5c-8-4.6-25.8-13.5-53.3-26.6c-27.5-13.2-46.4-22.6-56.7-28.4
			s-27.2-14.9-50.7-27.5c-23.5-12.6-41.8-23.5-55-32.7c-13.2-9.2-29-20.1-47.3-32.7c-27.5-18.3-56.7-44.7-87.7-79.1
			c-43.6-52.7-65.3-114.9-65.3-186.5s34.9-135.2,104.9-190.8s152.2-83.4,246.7-83.4s175.1,17.8,241.5,53.3
			c66.5,35.5,99.7,75.7,99.7,120.3c0,27.5-11.5,45.8-34.4,55c-8,2.3-18.4,3.4-31,3.4c-12.6,0-24.9-4-37-12
			c-12-8-25.8-18.9-41.2-32.7c-15.5-13.8-29.5-24.6-42.1-32.7c-34.4-22.9-81.4-34.4-141-34.4c-59.6,0-112.6,15.5-159,46.4
			c-46.4,30.9-69.6,69-69.6,114.3s21.8,87.4,65.3,126.4c39,34.4,100.3,74.2,183.9,119.5c83.7,45.3,139.2,76.5,166.7,93.7
			c67.6,40.1,122.3,89.1,164.2,147c41.8,57.9,62.8,120,62.8,186.5c0,105.5-41,196.3-122.9,272.5s-186.5,114.3-313.7,114.3
			s-227.5-33.2-300.9-99.7c-73.4-66.5-110-139.8-110-220.1s21.2-142.4,63.6-186.5c42.4-44.1,95.7-66.2,159.9-66.2
			c64.2,0,113.5,16.1,147.8,48.1s51.6,68.8,51.6,110c0,41.3-10.9,75.1-32.7,101.4C689.1,1135,674.2,1146.7,657,1153z"/>
	</g>
</g>
</svg>
